<?xml version="1.0" encoding="UTF-8"?>
<svg width="329px" height="99px" viewBox="0 0 329 99" version="1.1" xmlns="http://www.w3.org/2000/svg" xmlns:xlink="http://www.w3.org/1999/xlink">
    <title>Artboard Copy</title>
    <defs>
        <linearGradient x1="50%" y1="3.92047506e-14%" x2="50%" y2="100%" id="linearGradient-1">
            <stop stop-color="#FFE2AC" offset="0%"></stop>
            <stop stop-color="#BEB7FF" offset="75.0479007%"></stop>
            <stop stop-color="#DAB1E7" offset="100%"></stop>
        </linearGradient>
        <linearGradient x1="50%" y1="0%" x2="50%" y2="100%" id="linearGradient-2">
            <stop stop-color="#005CFF" offset="0%"></stop>
            <stop stop-color="#198CF0" offset="33.863248%"></stop>
            <stop stop-color="#8EC9FF" offset="100%"></stop>
        </linearGradient>
    </defs>
    <g id="Artboard-Copy" stroke="none" stroke-width="1" fill="none" fill-rule="evenodd">
        <path d="M315,0 C322.731986,-1.42034288e-15 329,6.2680135 329,14 L329,50 C329,57.7319865 322.731986,64 315,64 L309.910389,64.000639 C309.758374,62.3385163 309.394664,60.8756367 308.819258,59.612 C308.037258,57.8946667 306.971591,56.5836667 305.622258,55.679 C304.272925,54.7743333 302.770258,54.322 301.114258,54.322 C298.599591,54.322 296.299591,55.4106667 294.214258,57.588 L293.984258,54.782 L293.248258,54.322 L285.612258,57.22 L285.612258,58.968 L288.832258,59.382 C288.893591,60.302 288.931925,61.1376667 288.947258,61.889 C288.958724,62.4508378 288.965903,63.1541497 288.968795,63.9989357 L280.954,64 L280.954882,61.268 L281.092882,54.782 L280.356882,54.322 L272.076882,57.22 L272.076882,58.968 L275.342882,59.382 C275.404215,60.302 275.442548,61.1836667 275.457882,62.027 C275.468153,62.5919276 275.474984,63.2497427 275.478375,64.0004453 L267.373,64 L267.373505,62.556 C267.373505,59.8336364 266.870547,57.8098264 265.864629,56.4845702 L265.717505,56.3 C264.613505,54.9813333 263.064839,54.322 261.071505,54.322 C258.188839,54.322 255.566839,55.6866667 253.205505,58.416 L253.205505,50.182 L253.389505,43.696 L252.699505,43.282 L244.465505,45.352 L244.465505,47.146 L247.823505,47.606 L247.823,64 L237.900479,64.0007048 C237.571898,63.8669835 237.226448,63.7380819 236.864129,63.614 L235.024129,63.062 C233.460129,62.5406667 232.394462,62.027 231.827129,61.521 C231.259796,61.015 230.976129,60.348 230.976129,59.52 C230.976129,58.6306667 231.313462,57.9253333 231.988129,57.404 C232.662796,56.8826667 233.613462,56.622 234.840129,56.622 C235.882796,56.622 236.833462,56.806 237.692129,57.174 L238.520129,61.038 L241.556129,61.038 L241.786129,56.208 C240.712796,55.5946667 239.631796,55.127 238.543129,54.805 C237.454462,54.483 236.250796,54.322 234.932129,54.322 C233.061462,54.322 231.474462,54.6363333 230.171129,55.265 C228.867796,55.8936667 227.878796,56.737 227.204129,57.795 C226.529462,58.853 226.192129,60.026 226.192129,61.314 C226.192129,62.3144293 226.380932,63.210291 226.758537,64.0015852 L220.065,64.001 L222.362753,57.358 L224.892753,56.898 L224.892753,54.966 L216.474753,54.966 L216.474753,56.898 L219.510753,57.404 L217.445,64.001 L213.304,64.001 L210.954753,57.404 L213.944753,56.898 L213.944753,54.966 L203.272753,54.966 L203.272753,56.898 L206.354753,57.358 L203.998,64.001 L199.69,64.001 L197.522753,57.358 L200.650753,56.898 L200.650753,54.966 L189.380753,54.966 L189.380753,56.898 L191.772753,57.266 L194.245,64.001 L188.417898,64.0011074 C188.207248,62.3668563 187.727074,60.9268205 186.977376,59.681 C185.93471,57.9483333 184.570043,56.622 182.883376,55.702 C181.19671,54.782 179.372043,54.322 177.409376,54.322 C175.44671,54.322 173.622043,54.782 171.935376,55.702 C170.24871,56.622 168.89171,57.956 167.864376,59.704 C167.12894,60.9553387 166.656742,62.3874077 166.447782,64.0002072 L160.792,64.001 L160.792,50.182 L160.976,43.696 L160.286,43.282 L151.914,45.352 L151.914,47.146 L155.272,47.606 L155.272,64.001 L147.026,64.001 L147.026624,50.182 L147.210624,43.696 L146.520624,43.282 L138.148624,45.352 L138.148624,47.146 L141.506624,47.606 L141.506,64.001 L136.429002,64.0014969 C136.433165,63.8601207 136.435247,63.7156218 136.435247,63.568 C136.435247,61.6973333 136.059581,60.072 135.308247,58.692 C134.556914,57.312 133.506581,56.2386667 132.157247,55.472 C130.807914,54.7053333 129.228581,54.322 127.419247,54.322 C125.487247,54.322 123.670247,54.7896667 121.968247,55.725 C120.266247,56.6603333 118.886247,58.0096667 117.828247,59.773 C117.084908,61.0118994 116.602699,62.4211017 116.381622,64.0006071 L111.399,64 L111.399871,60.116 L109.053871,60.116 L108.472,64 L102.24588,64.0127535 L102.245988,63.6965022 L102.246054,63.5734949 L102.246927,62.5455692 C102.247749,61.7748465 102.249049,60.854079 102.250829,59.9082669 L102.252472,59.094353 C102.256286,57.3302173 102.261752,55.602881 102.268871,54.713 C102.284204,52.7963333 102.307204,50.872 102.337871,48.94 L111.813871,48.94 L112.779871,54.552 L115.999871,54.552 L115.677871,46.502 L92.355871,46.502 L92.355871,48.664 L96.219871,49.078 C96.2812043,51.0406667 96.311871,52.9956667 96.311871,54.943 L96.311,64 L74.991,64 L74.9911183,57.772 L80.5571183,57.772 L80.5571183,54.966 L75.0371183,54.966 L75.2211183,48.618 L71.4951183,48.618 L69.7471183,54.92 L66.0211183,55.38 L66.0211183,57.772 L69.4251183,57.772 L69.425,64 L55.245,64 L55.2457419,63.982 C55.9118901,61.664963 56.9883469,59.8402963 58.4751123,58.508 L58.7417419,58.278 L59.1557419,58.738 C60.1370753,59.842 61.1797419,60.394 62.2837419,60.394 C63.2037419,60.394 63.9244086,60.0796667 64.4457419,59.451 C64.9670753,58.8223333 65.2430753,57.9406667 65.2737419,56.806 C65.0590753,56.0086667 64.6067419,55.3953333 63.9167419,54.966 C63.2267419,54.5366667 62.4677419,54.322 61.6397419,54.322 C60.4437419,54.322 59.2477419,54.828 58.0517419,55.84 C56.8557419,56.852 55.9050753,58.3086667 55.1997419,60.21 L54.7397419,54.782 L54.0037419,54.322 L46.3217419,57.22 L46.3217419,58.968 L49.5417419,59.382 C49.6030753,60.302 49.6414086,61.1376667 49.6567419,61.889 C49.668208,62.4508378 49.675387,63.1541497 49.6782789,63.9989357 L38.309,64 L32.2803656,46.318 L28.5083656,46.318 L22.429,64 L14,64 C6.2680135,64 4.73447626e-16,57.7319865 0,50 L0,14 C-9.46895251e-16,6.2680135 6.2680135,9.46895251e-16 14,0 L315,0 Z M207.320753,61.59 L208.188,64.001 L206.438,64.001 L207.320753,61.59 Z M177.409376,56.576 C180.422556,56.576 182.10212,59.0509968 182.44807,64.0009905 L172.416076,64.0009905 C172.758909,59.0509968 174.423343,56.576 177.409376,56.576 Z M28.5083656,52.44 L32.374,64 L24.712,64 L28.5083656,52.44 Z M258.679505,58.186 C259.844839,58.186 260.665172,58.531 261.140505,59.221 C261.615839,59.911 261.853505,61.1606667 261.853505,62.97 L261.853,64 L253.343,64 L253.343505,60.808 C255.095886,59.1432381 256.792636,58.27122 258.433755,58.1919456 L258.679505,58.186 Z M298.952258,57.588 C300.485591,57.588 301.727591,58.3086667 302.678258,59.75 C303.370868,60.8000862 303.811177,62.216416 303.999185,63.9989894 L294.536,64 L294.536258,59.612 C295.219687,59.0862857 295.874952,58.6506939 296.502054,58.3052245 L296.813258,58.14 C297.533925,57.772 298.246925,57.588 298.952258,57.588 Z M127.097247,56.53 C128.231914,56.53 129.197914,56.9746667 129.995247,57.864 C130.792581,58.7533333 131.191247,59.9033333 131.191247,61.314 C131.191247,62.142 131.007247,62.786 130.639247,63.246 C130.271247,63.706 129.535247,63.936 128.431247,63.936 L122.129247,63.936 C122.251914,62.096 122.566247,60.6393333 123.072247,59.566 C123.578247,58.4926667 124.191581,57.7183333 124.912247,57.243 C125.632914,56.7676667 126.361247,56.53 127.097247,56.53 Z M278.194882,43.466 C277.213548,43.466 276.385548,43.7726667 275.710882,44.386 C275.036215,44.9993333 274.698882,45.7966667 274.698882,46.778 C274.698882,47.7286667 275.036215,48.5106667 275.710882,49.124 C276.385548,49.7373333 277.213548,50.044 278.194882,50.044 C279.176215,50.044 279.996548,49.7373333 280.655882,49.124 C281.315215,48.5106667 281.644882,47.7286667 281.644882,46.778 C281.644882,45.7966667 281.315215,44.9993333 280.655882,44.386 C279.996548,43.7726667 279.176215,43.466 278.194882,43.466 Z" id="Combined-Shape" fill="url(#linearGradient-1)"></path>
        <path d="M21.742,66 L18.8943656,74.286 L15.1223656,74.838 L15.1223656,77 L25.3343656,77 L25.3343656,74.838 L21.3323656,74.24 L23.5403656,67.57 L24.055,66 L33.043,66 L33.5683656,67.57 L35.7763656,74.378 L31.7283656,74.884 L31.7283656,77 L45.0223656,77 L45.0223656,74.884 L41.8943656,74.516 L38.991,66 L49.679,66 L49.6797419,70.813 C49.6797419,71.8802 49.6699286,72.8934267 49.6503019,73.85268 L49.6337419,74.562 L46.6897419,75.114 L46.6897419,77 L59.0637419,77 L59.0637419,75.114 L55.2917419,74.378 C55.2610753,73.2433333 55.2457419,72.0243333 55.2457419,70.721 L55.245,66 L69.425,66 L69.4251183,67.57 C69.4251183,68.3322857 69.4194856,68.9988163 69.4082203,69.5695918 L69.4021183,69.847 C69.3867849,70.4756667 69.3791183,71.1426667 69.3791183,71.848 C69.3791183,73.872 69.9004516,75.344 70.9431183,76.264 C71.9857849,77.184 73.4271183,77.644 75.2671183,77.644 C76.7084516,77.644 77.9351183,77.3756667 78.9471183,76.839 C79.9591183,76.3023333 80.7564516,75.5586667 81.3391183,74.608 L80.2351183,73.458 C79.1924516,74.2246667 78.2571183,74.608 77.4291183,74.608 C76.6931183,74.608 76.1027849,74.3473333 75.6581183,73.826 C75.2134516,73.3046667 74.9911183,72.4766667 74.9911183,71.342 L74.991,66 L96.311,66 L96.311871,68.628 C96.311871,70.1 96.294621,71.55475 96.260121,72.99225 L96.219871,74.424 L92.355871,74.838 L92.355871,77 L106.523871,77 L106.523871,74.838 L102.337871,74.378 C102.307204,72.5073333 102.284204,70.6136667 102.268871,68.697 C102.25671,67.1768851 102.249372,68.0908411 102.246856,67.4478885 L102.246117,67.1079777 C102.246062,67.0594124 102.246017,67.00692 102.24598,66.9501723 L102.245871,66.556 L108.409871,66.556 L109.053871,70.972 L111.399871,70.972 L111.399,66 L116.242,66 L116.241247,66.098 C116.241247,68.3405 116.645544,70.2932539 117.454138,71.9562617 L117.621247,72.285 C118.541247,74.0176667 119.813914,75.344 121.439247,76.264 C123.064581,77.184 124.950581,77.644 127.097247,77.644 C129.243914,77.644 131.091581,77.1763333 132.640247,76.241 C134.188914,75.3056667 135.407914,73.9946667 136.297247,72.308 L134.963247,71.112 C134.196581,71.9706667 133.345581,72.6683333 132.410247,73.205 C131.474914,73.7416667 130.332581,74.01 128.983247,74.01 C127.051247,74.01 125.448914,73.3506667 124.176247,72.032 C122.903581,70.7133333 122.205914,68.7353333 122.083247,66.098 L136.159247,66.098 C136.167541,66.0662076 136.175648,66.0341347 136.183568,66.0017816 L141.506,66 L141.506624,67.34 C141.506624,67.938 141.504707,68.536 141.500874,69.134 L141.483624,70.928 C141.46829,72.124 141.44529,73.32 141.414624,74.516 L138.286624,75.114 L138.286624,77 L150.246624,77 L150.246624,75.114 L147.118624,74.516 C147.087957,73.32 147.064957,72.124 147.049624,70.928 C147.03429,69.732 147.026624,68.536 147.026624,67.34 L147.026,66 L155.272,66 L155.272,67.34 C155.272,67.938 155.270083,68.536 155.26625,69.134 L155.249,70.928 C155.233667,72.124 155.210667,73.32 155.18,74.516 L152.052,75.114 L152.052,77 L164.012,77 L164.012,75.114 L160.884,74.516 C160.853333,73.32 160.830333,72.124 160.815,70.928 C160.799667,69.732 160.792,68.536 160.792,67.34 L160.792,66 L166.323,66 C166.323376,68.27725 166.754626,70.2520156 167.617126,71.9302969 L167.795376,72.262 C168.77671,74.01 170.103043,75.344 171.774376,76.264 C173.44571,77.184 175.324043,77.644 177.409376,77.644 C179.49471,77.644 181.373043,77.184 183.044376,76.264 C184.71571,75.344 186.04971,74.0176667 187.046376,72.285 C188.043043,70.5523333 188.541376,68.4593333 188.541376,66.006 L194.979,66 L199.086753,77.184 L201.616753,77.184 L205.707,66 L208.907,66 L212.932753,77.184 L215.508753,77.184 L219.374,66 L228.359089,66.0006791 C229.184674,66.6946815 230.196859,67.2536966 231.395644,67.6777245 L231.758129,67.8 L234.058129,68.582 C235.530129,69.0726667 236.572796,69.5863333 237.186129,70.123 C237.799462,70.6596667 238.106129,71.3573333 238.106129,72.216 C238.106129,73.1973333 237.722796,73.964 236.956129,74.516 C236.189462,75.068 235.024129,75.344 233.460129,75.344 C232.172129,75.344 230.976129,75.114 229.872129,74.654 L229.044129,70.376 L225.962129,70.376 L226.008129,75.712 C227.173462,76.356 228.346462,76.839 229.527129,77.161 C230.707796,77.483 232.003462,77.644 233.414129,77.644 C236.511462,77.644 238.895796,76.977 240.567129,75.643 C242.238462,74.309 243.074129,72.6146667 243.074129,70.56 C243.074129,68.9653333 242.598796,67.6006667 241.648129,66.466 C241.514863,66.3069408 241.368942,66.1514973 241.210366,65.9996696 L247.823,66 L247.823505,70.813 C247.823505,71.9246667 247.812857,72.9671204 247.791561,73.9403611 L247.777505,74.516 L244.741505,75.114 L244.741505,77 L256.103505,77 L256.103505,75.114 L253.389505,74.562 C253.358839,73.3966667 253.343505,72.1546667 253.343505,70.836 L253.343,66 L261.853,66 L261.853505,70.859 C261.853505,71.9016667 261.843692,72.89036 261.824065,73.82508 L261.807505,74.516 L258.863505,75.114 L258.863505,77 L270.225505,77 L270.225505,75.114 L267.419505,74.562 C267.388839,73.4273333 267.373505,72.2006667 267.373505,70.882 L267.373,66 L275.48,66 L275.480882,70.813 C275.480882,71.9246667 275.470234,72.9671204 275.448937,73.9403611 L275.434882,74.516 L272.398882,75.114 L272.398882,77 L283.806882,77 L283.806882,75.114 L281.000882,74.562 C280.970215,73.3966667 280.954882,72.147 280.954882,70.813 L280.954,66 L288.97,66 L288.970258,77.736 C288.970258,78.61 288.965946,79.5055625 288.957321,80.4226875 L288.947258,81.347 C288.931925,82.589 288.908925,83.8846667 288.878258,85.234 L285.750258,85.832 L285.750258,87.718 L298.078258,87.718 L298.078258,85.832 L294.490258,85.142 C294.459591,83.7926667 294.436591,82.497 294.421258,81.255 C294.405925,80.013 294.398258,78.8246667 294.398258,77.69 L294.398258,74.93 C295.287591,75.8806667 296.222925,76.5706667 297.204258,77 C298.185591,77.4293333 299.243591,77.644 300.378258,77.644 C302.156925,77.644 303.766925,77.1686667 305.208258,76.218 C306.649591,75.2673333 307.807258,73.9103333 308.681258,72.147 C309.555258,70.3836667 309.992258,68.2906667 309.992258,65.868 L309.99,66 L315,66 C322.731986,66 329,72.2680135 329,80 L329,85 C329,92.7319865 322.731986,99 315,99 L14,99 C6.2680135,99 4.73447626e-16,92.7319865 0,85 L0,80 C-9.46895251e-16,72.2680135 6.2680135,66 14,66 L21.742,66 Z M182.515,66 L182.515376,66.052 C182.515376,69.2106667 182.078376,71.5566667 181.204376,73.09 C180.330376,74.6233333 179.065376,75.39 177.409376,75.39 C175.753376,75.39 174.496043,74.6233333 173.637376,73.09 C172.77871,71.5566667 172.349376,69.2106667 172.349376,66.052 C172.349376,66.0347395 172.349389,66.0175026 172.349414,66.0002893 L182.515,66 Z M304.103,66 L304.104258,66.144 C304.104258,68.996 303.575258,71.089 302.517258,72.423 C301.459258,73.757 300.163591,74.424 298.630258,74.424 C297.188925,74.424 295.824258,73.826 294.536258,72.63 L294.536,66 L304.103,66 Z M203.289,66 L201.754753,70.33 L200.342,66 L203.289,66 Z M216.82,66 L215.508753,70.192 L214.015,66 L216.82,66 Z" id="Combined-Shape" fill="url(#linearGradient-2)"></path>
    </g>
</svg>